<?xml version="1.0" standalone="no"?><svg xmlns="http://www.w3.org/2000/svg" viewBox="0 0 1440 320"><path fill="#2A3443" fill-opacity="1" d="M0,288L0,64L110.8,64L110.8,64L221.5,64L221.5,224L332.3,224L332.3,288L443.1,288L443.1,224L553.8,224L553.8,64L664.6,64L664.6,224L775.4,224L775.4,160L886.2,160L886.2,192L996.9,192L996.9,224L1107.7,224L1107.7,128L1218.5,128L1218.5,32L1329.2,32L1329.2,32L1440,32L1440,320L1329.2,320L1329.2,320L1218.5,320L1218.5,320L1107.7,320L1107.7,320L996.9,320L996.9,320L886.2,320L886.2,320L775.4,320L775.4,320L664.6,320L664.6,320L553.8,320L553.8,320L443.1,320L443.1,320L332.3,320L332.3,320L221.5,320L221.5,320L110.8,320L110.8,320L0,320L0,320Z"></path></svg>