<?xml version="1.0" standalone="no"?><svg xmlns="http://www.w3.org/2000/svg" viewBox="0 0 1440 320"><path fill="#2A3443" fill-opacity="1" d="M0,288L0,64L110.8,64L110.8,64L221.5,64L221.5,224L332.3,224L332.3,288L443.1,288L443.1,224L553.8,224L553.8,64L664.6,64L664.6,224L775.4,224L775.4,160L886.2,160L886.2,192L996.9,192L996.9,224L1107.7,224L1107.7,128L1218.5,128L1218.5,32L1329.2,32L1329.2,32L1440,32L1440,0L1329.2,0L1329.2,0L1218.5,0L1218.5,0L1107.7,0L1107.7,0L996.9,0L996.9,0L886.2,0L886.2,0L775.4,0L775.4,0L664.6,0L664.6,0L553.8,0L553.8,0L443.1,0L443.1,0L332.3,0L332.3,0L221.5,0L221.5,0L110.8,0L110.8,0L0,0L0,0Z"></path></svg>